<?xml version="1.0" standalone="no"?>
<!DOCTYPE svg PUBLIC "-//W3C//DTD SVG 20010904//EN"
 "http://www.w3.org/TR/2001/REC-SVG-20010904/DTD/svg10.dtd">
<svg version="1.0" xmlns="http://www.w3.org/2000/svg"
 width="1000.000000pt" height="1000.000000pt" viewBox="0 0 1000.000000 1000.000000"
 preserveAspectRatio="xMidYMid meet">
<metadata>
Created by potrace 1.14, written by Peter Selinger 2001-2017
</metadata>
<g transform="translate(0.000000,1000.000000) scale(0.100000,-0.100000)"
fill="#000000" stroke="none">
<path d="M0 5000 l0 -5000 5000 0 5000 0 0 5000 0 5000 -5000 0 -5000 0 0
-5000z m5906 3045 c255 -125 342 -447 169 -620 -53 -52 -95 -70 -270 -110
-319 -74 -445 -141 -445 -237 0 -18 8 -47 19 -64 l18 -30 -191 33 c-324 57
-475 50 -860 -44 -183 -45 -181 -46 -173 87 9 149 62 297 158 440 102 152 229
253 384 306 68 23 96 27 185 27 139 -1 227 -25 404 -112 190 -93 231 -106 341
-106 120 0 175 26 223 105 28 47 32 63 32 123 0 87 -18 125 -86 185 -30 26
-54 51 -54 56 0 16 75 -3 146 -39z m-1940 -114 c131 -61 214 -177 214 -297 0
-81 -21 -135 -99 -254 -98 -149 -182 -326 -188 -397 -8 -82 12 -118 73 -136
l45 -13 -143 -100 c-219 -153 -298 -223 -393 -349 -85 -113 -187 -267 -243
-366 -18 -32 -38 -59 -46 -62 -41 -16 -150 110 -218 252 -62 130 -90 252 -91
396 -2 193 50 338 165 460 103 110 208 170 415 236 183 58 308 142 354 236 51
105 13 236 -86 298 -43 26 -60 31 -144 35 l-96 5 35 23 c130 83 310 97 446 33z
m2417 -667 c111 -25 207 -75 289 -152 96 -90 157 -188 225 -361 84 -215 154
-311 265 -361 113 -51 255 9 306 130 11 27 13 57 8 128 -4 50 -5 92 -2 92 13
0 79 -124 98 -183 16 -54 20 -87 16 -160 -5 -115 -41 -201 -118 -278 -68 -68
-126 -93 -216 -94 -77 0 -67 -4 -334 137 -270 144 -408 155 -440 37 -6 -21
-13 -39 -15 -39 -2 0 -41 48 -86 108 -109 142 -220 270 -273 315 -84 69 -341
229 -493 306 -85 42 -85 61 0 144 112 109 312 208 477 236 88 14 215 12 293
-5z m-1348 -395 c224 -19 421 -75 617 -176 145 -74 261 -158 390 -282 126
-121 193 -205 286 -361 l68 -114 95 -41 94 -41 3 -737 2 -737 -79 0 c-44 0
-86 -3 -95 -6 -14 -6 -16 43 -17 497 0 277 -2 500 -4 494 -2 -5 -18 -219 -35
-475 -17 -256 -33 -475 -36 -487 -4 -21 -10 -23 -68 -23 l-65 0 -5 53 c-3 28
-10 120 -16 202 -37 558 -52 771 -55 780 -2 6 -4 -225 -4 -512 l-1 -523 -96 0
-95 0 2 386 c1 254 -1 388 -8 392 -7 5 -12 128 -16 332 -6 346 -14 414 -62
533 -22 53 -93 162 -101 155 -1 -2 11 -31 27 -64 17 -34 40 -95 52 -135 20
-71 21 -99 25 -654 2 -395 0 -605 -8 -658 -30 -206 -110 -318 -228 -319 -130
-1 -213 118 -242 344 -5 46 -10 167 -10 270 l0 188 -35 0 -35 0 0 -92 c0 -51
-5 -166 -10 -255 -15 -240 -60 -364 -159 -430 -47 -32 -135 -32 -181 0 -73 49
-117 134 -140 268 -6 35 -13 164 -17 287 l-6 222 -154 0 -153 0 0 536 c0 485
-2 536 -16 530 -9 -3 -20 -6 -25 -6 -5 0 -9 -291 -9 -725 l0 -726 65 7 65 7
-2 -194 -3 -194 -166 -3 -167 -2 -7 216 c-4 119 -5 291 -3 382 4 152 3 165
-13 169 -24 7 -24 3 -54 468 -29 461 -33 495 -48 495 -37 -1 -37 -2 18 -800
30 -432 56 -818 60 -857 l6 -73 -109 0 -109 0 -7 77 c-3 42 -6 111 -6 155 l0
78 -40 0 -40 0 0 -48 c0 -27 -3 -97 -7 -155 l-6 -107 -109 0 -108 0 0 33 c0
49 39 625 46 680 l7 47 -42 0 -41 0 0 224 0 225 54 17 53 17 7 66 c3 36 6 114
6 173 l0 108 -25 -12 c-24 -11 -24 -14 -27 -141 l-3 -131 -62 -20 -63 -20 0
-633 0 -633 -105 0 -105 0 0 380 0 380 -30 0 c-28 0 -30 3 -31 38 -1 77 1 169
7 230 6 55 10 65 30 72 19 8 24 17 24 45 0 19 -4 35 -8 35 -5 0 -34 -9 -65
-19 l-57 -20 0 142 0 142 103 46 102 46 52 97 c227 421 594 712 1048 829 124
32 218 45 390 55 17 1 84 -3 150 -9z m-2453 -395 c60 -19 139 -90 167 -148 11
-25 32 -98 47 -163 48 -214 112 -380 167 -431 l25 -23 52 26 c28 14 62 30 76
35 l24 10 0 -705 0 -705 -105 0 -105 0 0 353 c-1 193 -5 433 -9 533 -10 190
-22 243 -59 263 -19 10 -20 9 -11 -22 16 -50 15 -422 -1 -486 -19 -80 -76
-134 -161 -153 l-64 -14 -3 -237 -2 -237 -110 0 -110 0 0 385 0 385 -40 0
c-22 0 -40 5 -40 11 0 6 -5 52 -11 104 -10 84 -9 100 10 169 12 43 53 144 91
225 95 202 117 305 89 416 -14 55 -70 122 -123 146 -54 24 -148 24 -201 0 -22
-10 -62 -43 -88 -74 -27 -32 -52 -57 -57 -57 -12 0 13 88 44 155 35 77 131
175 210 214 104 51 193 58 298 25z m4279 -464 c169 -41 330 -129 443 -245 79
-80 127 -156 161 -260 15 -44 42 -112 62 -151 43 -87 52 -173 53 -464 0 -338
-16 -419 -94 -487 -47 -42 -95 -56 -176 -51 -93 5 -138 35 -180 121 -40 81
-49 172 -50 470 l0 217 -30 0 -30 0 0 -125 c0 -125 0 -125 -22 -120 -13 3 -42
9 -65 14 l-43 9 0 -284 0 -284 -94 0 c-52 0 -101 3 -110 6 -14 6 -16 69 -16
618 0 512 -3 619 -15 660 -8 27 -15 71 -15 98 0 36 -5 54 -19 66 -10 10 -31
52 -46 95 -26 74 -26 79 -10 97 30 33 160 33 296 0z m-4607 -696 c4 -38 31
-266 60 -506 l52 -438 -107 0 -106 0 -7 38 c-3 20 -6 58 -6 85 l0 47 -39 0
-40 0 -5 -52 c-3 -29 -7 -69 -9 -88 l-2 -35 -107 -3 c-83 -2 -108 0 -108 10
-1 7 23 217 52 465 l52 453 146 48 c80 27 150 48 155 47 6 -1 14 -33 19 -71z
m5761 -51 c83 -43 118 -115 118 -249 1 -116 -12 -150 -64 -165 l-38 -12 32
-21 c64 -43 71 -69 71 -270 l1 -181 -97 -3 -98 -3 0 188 c0 201 -7 235 -48
241 l-22 3 0 -210 0 -211 -105 0 -105 0 0 509 0 510 158 -53 c86 -29 175 -62
197 -73z m325 -48 c64 -8 159 -17 213 -21 l97 -7 0 -83 0 -83 -65 6 -65 6 0
-337 0 -336 -105 0 -105 0 0 344 0 344 -65 7 -65 7 0 89 c0 88 0 89 23 84 12
-3 74 -12 137 -20z m-6640 -7 c24 -13 52 -34 62 -48 19 -27 37 -137 38 -231 0
-66 3 -65 -134 -75 l-86 -7 0 110 c0 118 -7 137 -46 123 -14 -6 -23 -20 -27
-47 -9 -51 -7 -481 2 -513 8 -28 48 -40 62 -18 5 7 9 54 9 105 l0 92 33 5 c17
3 67 8 111 11 l79 6 -7 -93 c-9 -123 -20 -161 -59 -205 -47 -54 -102 -74 -197
-74 -90 0 -147 20 -192 65 -49 50 -53 79 -53 371 l0 270 28 47 c62 107 264
163 377 106z m-199 -1164 l22 -37 21 37 c18 31 26 36 59 36 20 0 37 -2 37 -6
0 -3 -18 -32 -40 -64 -34 -50 -40 -67 -40 -109 l0 -51 -35 0 -35 0 0 48 c0 39
-7 58 -45 115 l-45 67 39 0 c34 0 42 -5 62 -36z m320 26 c28 -15 49 -63 49
-111 0 -33 -6 -47 -34 -75 -27 -27 -42 -34 -75 -34 -82 0 -121 40 -121 125 0
38 5 52 29 76 25 24 37 29 81 29 28 0 60 -5 71 -10z m161 -72 l3 -83 30 0 30
0 3 83 3 82 34 0 35 0 0 -86 c0 -81 -1 -87 -29 -115 -23 -22 -39 -29 -70 -29
-91 0 -121 39 -121 160 l0 70 40 0 39 0 3 -82z m368 62 c27 -27 25 -56 -4 -85
-21 -21 -22 -26 -9 -36 16 -14 43 -63 43 -79 0 -7 -15 -10 -37 -8 -33 3 -41 9
-61 46 -13 23 -27 42 -32 42 -5 0 -10 -19 -12 -42 -3 -42 -4 -43 -38 -43 l-35
0 -3 113 -3 112 86 0 c72 0 88 -3 105 -20z m230 -20 c0 -39 1 -40 35 -40 34 0
35 1 35 40 0 39 1 40 35 40 l35 0 0 -115 0 -115 -35 0 c-35 0 -35 0 -35 45 0
45 0 45 -35 45 -35 0 -35 0 -35 -45 0 -45 0 -45 -35 -45 l-35 0 0 115 0 115
35 0 c34 0 35 -1 35 -40z m370 15 c0 -24 -3 -25 -55 -25 -42 0 -55 -3 -55 -15
0 -11 12 -15 50 -15 47 0 50 -2 50 -25 0 -23 -3 -25 -50 -25 -43 0 -50 -3 -50
-20 0 -16 8 -19 58 -22 53 -3 57 -5 57 -28 0 -25 -1 -25 -92 -28 l-93 -3 0
116 0 115 90 0 c89 0 90 0 90 -25z m206 -47 c14 -40 33 -88 40 -107 20 -48 18
-51 -22 -51 -27 0 -37 5 -41 20 -4 16 -14 20 -43 20 -30 0 -40 -5 -45 -20 -5
-15 -15 -20 -41 -20 -38 0 -40 4 -20 51 7 19 26 67 40 107 l28 72 38 0 38 0
28 -72z m254 42 c0 -28 -3 -30 -35 -30 l-34 0 -3 -82 -3 -83 -35 0 -35 0 -3
82 -3 82 -32 3 c-27 2 -33 8 -35 31 l-3 27 110 0 111 0 0 -30z m100 -85 l0
-115 -35 0 -35 0 0 115 0 115 35 0 35 0 0 -115z m152 56 l38 -54 0 56 0 57 35
0 35 0 0 -115 0 -115 -32 0 c-29 1 -38 8 -75 62 l-43 62 0 -62 0 -63 -32 3
-33 3 -3 99 c-1 55 0 106 3 113 3 9 17 13 37 11 26 -2 40 -13 70 -57z m347 35
c13 -14 20 -29 16 -35 -8 -14 -62 -14 -70 -1 -9 14 -48 13 -63 -2 -7 -7 -12
-31 -12 -55 0 -48 24 -69 66 -59 30 8 31 24 2 28 -15 2 -24 11 -26 26 -3 21 0
22 52 22 l56 0 0 -51 c0 -48 -2 -51 -35 -65 -114 -47 -215 28 -184 138 15 55
50 78 119 78 47 0 60 -4 79 -24z m333 7 c23 -21 23 -34 -3 -67 -26 -34 -18
-46 28 -39 34 6 36 5 30 -17 -3 -12 0 -31 6 -41 16 -26 -14 -59 -36 -40 -11 8
-22 9 -41 1 -40 -15 -98 -12 -124 6 -32 22 -30 78 4 100 17 12 22 20 15 27
-16 16 -13 53 5 71 21 21 92 21 116 -1z m393 -8 c32 -31 31 -43 0 -51 -18 -4
-32 -1 -45 11 -17 15 -24 16 -45 7 -20 -9 -25 -19 -25 -46 0 -52 9 -66 40 -66
20 0 31 6 35 20 5 16 12 19 28 14 32 -9 40 -20 32 -43 -13 -42 -99 -65 -148
-40 -41 21 -57 51 -57 107 0 46 4 58 29 83 25 24 37 29 81 29 41 0 56 -5 75
-25z m236 15 c28 -15 49 -63 49 -111 0 -33 -6 -47 -34 -75 -27 -27 -42 -34
-75 -34 -82 0 -121 40 -121 125 0 38 5 52 29 76 25 24 37 29 81 29 28 0 60 -5
71 -10z m259 -5 c35 -18 56 -76 46 -128 -14 -74 -103 -110 -176 -72 -39 20
-50 43 -50 105 0 44 5 56 29 81 24 24 38 29 76 29 25 0 59 -7 75 -15z m152
-67 l3 -83 53 -3 c50 -3 52 -4 52 -33 l0 -30 -87 3 -88 3 -3 113 -3 112 35 0
35 0 3 -82z m208 -33 l0 -115 -35 0 -35 0 0 115 0 115 35 0 35 0 0 -115z m156
58 l39 -58 3 58 3 57 35 0 35 0 -3 -112 -3 -113 -32 -3 c-29 -3 -35 2 -70 54
l-38 58 -3 -57 -3 -57 -34 0 -35 0 0 115 0 115 34 0 c29 0 38 -7 72 -57z m342
41 c12 -8 22 -24 22 -35 0 -15 -7 -19 -33 -19 -18 0 -38 5 -44 11 -7 7 -23 9
-37 5 -34 -8 -46 -65 -22 -101 19 -28 43 -32 72 -10 18 14 18 14 -8 15 -23 0
-28 4 -28 25 0 24 3 25 55 25 l55 0 0 -48 c0 -47 -1 -50 -40 -67 -53 -24 -123
-16 -157 17 -48 49 -39 153 16 183 35 19 121 19 149 -1z m330 0 c32 -22 29
-54 -5 -54 -14 0 -34 7 -44 16 -10 9 -25 14 -34 10 -24 -9 -9 -24 30 -32 83
-15 115 -89 58 -134 -55 -43 -173 -11 -173 46 0 20 66 19 74 -1 3 -8 17 -15
31 -15 43 0 26 30 -29 51 -55 21 -66 32 -66 71 0 36 34 58 90 58 25 0 56 -7
68 -16z m233 -2 c51 -42 17 -122 -52 -122 -37 0 -38 -1 -41 -42 -3 -42 -4 -43
-38 -43 l-35 0 -3 113 -3 112 75 0 c57 0 79 -4 97 -18z m249 -7 c0 -24 -3 -25
-60 -25 -46 0 -60 -3 -60 -14 0 -11 15 -16 53 -18 45 -3 52 -6 55 -25 3 -22 0
-23 -52 -23 -49 0 -56 -2 -56 -20 0 -18 7 -20 60 -20 l60 0 0 -30 0 -30 -95 0
-95 0 0 115 0 115 95 0 c95 0 95 0 95 -25z m215 0 c32 -31 31 -43 0 -51 -17
-4 -32 -1 -44 10 -40 36 -74 10 -69 -56 3 -40 5 -43 35 -46 24 -2 33 1 37 16
5 14 13 18 31 14 33 -6 40 -19 25 -47 -26 -48 -127 -59 -171 -19 -47 42 -43
144 8 184 38 30 116 28 148 -5z m135 -90 l0 -115 -35 0 -35 0 0 115 0 115 35
0 35 0 0 -115z m222 15 c47 -121 47 -130 4 -130 -25 0 -35 5 -39 20 -4 16 -14
20 -45 20 -31 0 -41 -4 -45 -20 -4 -15 -14 -20 -36 -20 -18 0 -31 5 -31 13 0
6 17 58 37 115 l38 103 40 -3 40 -3 37 -95z m138 15 l0 -85 56 0 c54 0 55 0
52 -27 -3 -28 -3 -28 -90 -31 l-88 -3 0 116 0 115 35 0 35 0 0 -85z m208 -27
l-3 -113 -32 -3 -33 -3 0 115 0 116 35 0 36 0 -3 -112z m211 86 c12 -15 21
-31 21 -35 0 -16 -67 -10 -74 6 -7 19 -46 20 -46 1 0 -8 12 -17 28 -20 56 -13
81 -28 92 -56 38 -93 -147 -145 -189 -53 -15 33 -15 33 24 33 22 0 38 -6 41
-15 7 -16 49 -21 58 -6 8 12 -11 25 -53 40 -70 23 -91 71 -51 111 15 15 33 20
74 20 47 0 57 -4 75 -26z m251 -4 c0 -28 -3 -30 -35 -30 l-35 0 0 -85 0 -85
-35 0 -35 0 0 85 0 85 -35 0 c-32 0 -35 2 -35 30 l0 30 105 0 105 0 0 -30z
m199 4 c11 -15 18 -30 15 -35 -9 -15 -61 -10 -74 6 -16 19 -40 19 -40 0 0 -8
14 -17 35 -21 83 -15 115 -89 58 -134 -55 -43 -173 -11 -173 46 0 20 66 19 74
-1 3 -8 17 -15 31 -15 40 0 27 30 -19 47 -75 25 -98 71 -56 113 15 15 33 20
74 20 47 0 57 -4 75 -26z"/>
<path d="M5210 6208 c44 -94 60 -211 67 -492 l6 -249 -86 5 -87 6 0 -28 c0
-27 1 -27 77 -34 42 -3 92 -6 111 -6 l35 0 -6 278 c-7 342 -23 428 -104 545
-39 56 -45 44 -13 -25z"/>
<path d="M5000 6021 c-6 -13 -10 -240 -10 -666 0 -426 4 -653 10 -666 16 -28
37 -23 49 12 14 41 15 449 1 449 -14 0 -13 748 1 805 8 31 8 49 0 64 -15 26
-37 27 -51 2z"/>
<path d="M6208 5985 c-1 -2 8 -162 22 -357 26 -376 33 -392 44 -108 4 95 1
213 -6 304 -12 137 -15 149 -35 157 -11 4 -23 6 -25 4z"/>
<path d="M5574 5943 c-11 -23 -17 -1150 -7 -1223 7 -45 12 -55 28 -55 15 0 21
9 27 40 7 43 1 1195 -8 1233 -5 26 -28 29 -40 5z"/>
<path d="M3871 5428 c-6 -117 -14 -264 -18 -327 l-6 -113 34 7 c19 4 35 8 37
10 5 5 -22 635 -28 635 -4 0 -12 -96 -19 -212z"/>
<path d="M2620 5196 l0 -156 25 12 c28 13 48 65 32 85 -5 7 -8 56 -6 110 l4
98 -27 3 -28 3 0 -155z"/>
<path d="M7040 5510 c0 -125 2 -122 -80 -90 -28 11 -55 20 -60 20 -6 0 -10
-51 -10 -124 0 -126 3 -136 41 -136 5 0 9 45 9 100 0 55 4 100 9 100 5 0 35
-10 66 -22 48 -18 58 -19 66 -7 5 8 8 67 7 133 -3 113 -4 119 -25 127 -23 8
-23 8 -23 -101z"/>
<path d="M7307 5343 c-9 -8 -9 -766 -1 -787 9 -23 41 -20 49 4 10 31 3 752 -7
773 -9 17 -29 23 -41 10z"/>
<path d="M2077 4932 c-23 -226 -24 -222 12 -222 17 0 32 4 35 9 5 8 -22 372
-28 378 -1 2 -10 -73 -19 -165z"/>
<path d="M7870 5045 c0 -105 0 -105 25 -105 36 0 48 31 43 112 -3 54 -8 73
-23 84 -40 30 -45 20 -45 -91z"/>
<path d="M1726 4014 c-19 -18 -21 -75 -4 -92 18 -18 56 -14 68 7 22 43 2 101
-35 101 -7 0 -21 -7 -29 -16z"/>
<path d="M2240 4010 c0 -15 7 -20 25 -20 18 0 25 5 25 20 0 15 -7 20 -25 20
-18 0 -25 -5 -25 -20z"/>
<path d="M3076 3978 c-9 -35 -8 -38 15 -38 16 0 19 4 14 23 -11 35 -22 41 -29
15z"/>
<path d="M4274 4036 c-8 -22 3 -33 18 -18 9 9 9 15 0 24 -9 9 -13 7 -18 -6z"/>
<path d="M4244 3929 c-10 -16 20 -41 40 -33 16 6 16 8 0 25 -20 22 -30 24 -40
8z"/>
<path d="M4876 4015 c-20 -20 -21 -78 -2 -95 44 -36 95 25 65 78 -18 32 -41
39 -63 17z"/>
<path d="M5138 4019 c-12 -7 -18 -22 -18 -47 0 -50 11 -64 46 -60 38 4 55 55
30 93 -18 27 -31 30 -58 14z"/>
<path d="M6560 4006 c0 -19 4 -23 20 -19 11 3 20 14 20 24 0 12 -7 19 -20 19
-14 0 -20 -7 -20 -24z"/>
<path d="M7383 3976 c-10 -33 -9 -36 8 -36 20 0 24 20 10 54 -6 15 -9 12 -18
-18z"/>
</g>
</svg>
