<?xml version="1.0" standalone="no"?>
<!DOCTYPE svg PUBLIC "-//W3C//DTD SVG 20010904//EN"
 "http://www.w3.org/TR/2001/REC-SVG-20010904/DTD/svg10.dtd">
<svg version="1.0" xmlns="http://www.w3.org/2000/svg"
 width="704.000000pt" height="704.000000pt" viewBox="0 0 704.000000 704.000000"
 preserveAspectRatio="xMidYMid meet">
<metadata>
Created by potrace 1.14, written by Peter Selinger 2001-2017
</metadata>
<g transform="translate(0.000000,704.000000) scale(0.100000,-0.100000)"
fill="#000000" stroke="none">
<path d="M4221 6433 c8 -10 23 -26 34 -36 81 -71 97 -99 100 -178 4 -83 -29
-150 -96 -193 -27 -17 -45 -22 -112 -32 -42 -6 -164 13 -173 27 -3 5 -14 9
-24 9 -11 0 -63 22 -117 49 -150 74 -211 98 -303 117 -79 16 -208 8 -295 -19
-48 -15 -68 -24 -127 -58 -117 -69 -241 -212 -310 -360 -42 -90 -81 -237 -81
-309 0 -46 4 -68 17 -85 13 -18 18 -17 147 14 74 18 144 35 157 37 12 2 34 6
50 9 15 3 43 8 62 11 19 3 41 7 47 9 18 6 142 18 183 17 46 0 171 -11 201 -18
13 -2 40 -7 59 -10 19 -2 58 -9 85 -14 28 -6 68 -13 90 -16 22 -3 43 -8 48
-11 17 -10 28 9 13 26 -23 25 -28 77 -12 109 8 16 32 40 53 54 37 24 155 75
197 84 38 9 51 12 51 14 0 2 33 10 55 14 8 1 29 6 45 9 17 4 39 9 50 12 122
28 165 47 214 97 57 58 81 119 83 218 2 60 -9 104 -40 169 -28 58 -126 171
-148 171 -8 0 -14 4 -14 9 0 12 -151 71 -181 71 -19 0 -20 -2 -8 -17z"/>
<path d="M2258 6325 c-58 -12 -168 -60 -180 -79 -13 -19 1 -22 75 -18 82 4
122 -8 174 -52 70 -59 93 -156 58 -244 -37 -92 -200 -199 -370 -242 -135 -34
-305 -139 -388 -239 -41 -50 -102 -167 -112 -216 -16 -76 -19 -106 -19 -185
-1 -141 21 -244 85 -385 44 -99 145 -226 190 -240 28 -9 44 9 114 129 51 90
198 299 250 358 49 55 152 138 304 244 129 89 140 99 119 107 -88 33 -106 62
-90 148 10 54 74 202 113 259 69 104 128 201 141 235 20 52 20 151 0 195 -8
19 -14 38 -14 42 1 4 -24 34 -56 66 -103 106 -244 148 -394 117z"/>
<path d="M4659 5685 c-3 -2 -35 -6 -73 -10 -38 -3 -72 -7 -76 -10 -3 -2 -22
-7 -40 -10 -112 -20 -294 -118 -386 -209 -91 -90 -83 -108 76 -183 8 -4 49
-27 90 -51 41 -25 84 -50 95 -56 158 -89 288 -210 445 -416 36 -47 75 -96 87
-109 l21 -24 11 39 c17 61 34 76 88 81 66 7 172 -29 320 -108 237 -126 246
-129 303 -133 140 -8 268 90 320 244 27 78 30 144 13 227 -16 78 -84 213 -106
213 -4 0 -4 -40 -1 -89 6 -84 4 -93 -21 -138 -86 -155 -263 -159 -388 -10 -41
49 -124 197 -111 197 4 0 2 6 -3 13 -6 6 -16 30 -23 52 -12 38 -75 167 -103
209 -72 112 -231 231 -335 251 -12 2 -26 6 -31 10 -5 3 -42 8 -82 11 -40 3
-76 7 -79 9 -4 3 -9 3 -11 0z"/>
<path d="M3279 5296 c-2 -2 -29 -7 -59 -10 -158 -17 -337 -70 -495 -148 -81
-40 -207 -117 -213 -130 -2 -5 -10 -8 -17 -8 -7 0 -15 -3 -17 -7 -1 -5 -25
-26 -53 -48 -163 -131 -297 -299 -402 -502 l-37 -72 -93 -42 c-51 -23 -93 -47
-94 -53 -1 -6 0 -22 1 -35 2 -24 -14 -41 -37 -41 -8 0 -13 13 -13 30 0 17 -2
30 -5 30 -3 0 -33 -14 -67 -30 -65 -32 -93 -32 -103 1 -4 10 -10 19 -14 19
-15 0 -98 209 -102 255 0 2 -5 19 -10 37 -5 18 -16 65 -24 105 -28 130 -86
225 -158 254 -17 7 -35 16 -38 21 -3 4 -37 11 -77 14 -130 11 -238 -30 -335
-128 -31 -32 -57 -64 -57 -70 0 -6 -6 -19 -14 -27 -13 -14 -56 -140 -56 -162
0 -17 18 -9 41 17 104 114 167 139 268 104 91 -30 140 -97 148 -199 8 -100
-21 -188 -156 -471 -4 -8 -16 -47 -26 -87 -13 -51 -24 -73 -37 -76 -17 -5 -25
14 -19 46 2 13 -49 0 -183 -47 -95 -33 -120 -45 -122 -61 -2 -11 -6 -51 -9
-90 -3 -38 -10 -95 -15 -125 -5 -30 -11 -84 -15 -120 -3 -36 -8 -78 -10 -95
-2 -16 -7 -61 -10 -100 -4 -38 -11 -74 -15 -78 -4 -5 -7 2 -6 15 1 17 -5 24
-21 26 -17 3 -23 10 -23 28 l0 24 -92 -6 c-51 -3 -97 -10 -102 -15 -5 -5 -10
-47 -11 -94 -2 -80 -8 -106 -21 -93 -5 6 -6 425 0 461 1 9 7 22 12 27 7 7 10
-16 10 -72 -1 -78 0 -83 21 -86 14 -2 23 -12 25 -25 3 -20 8 -22 61 -21 32 1
78 5 101 8 l43 7 -2 88 c-4 142 -10 163 -67 225 -70 77 -145 97 -257 68 -100
-25 -148 -61 -182 -138 -17 -36 -19 -68 -18 -275 1 -273 7 -301 73 -371 54
-56 84 -73 153 -86 48 -8 61 -8 123 2 59 9 101 38 147 101 l22 30 -8 -36 c-8
-34 -7 -36 15 -33 13 1 25 -3 25 -9 1 -7 2 -19 3 -27 1 -12 20 -15 104 -15 61
0 102 4 103 10 1 9 3 31 10 118 5 56 32 46 36 -13 3 -58 9 -71 28 -64 8 3 16
1 16 -5 1 -6 3 -15 4 -21 1 -5 3 -14 4 -18 1 -9 183 -8 199 2 5 3 8 15 5 26
-4 15 0 20 16 20 16 0 21 -6 21 -28 l0 -27 97 2 c53 2 98 5 100 7 3 3 6 102 6
222 l2 217 52 12 c65 15 117 49 144 95 21 35 26 58 34 158 10 127 14 44 14
-264 -1 -437 -3 -397 21 -391 11 3 21 0 21 -6 1 -7 2 -19 3 -27 1 -12 20 -15
102 -15 l100 0 0 567 c-1 611 -4 570 42 568 4 -1 6 -12 5 -25 -1 -16 3 -25 13
-25 12 0 13 -9 8 -46 -9 -66 -12 -251 -5 -261 3 -4 17 -8 31 -8 21 0 25 -5 25
-30 0 -22 -4 -29 -17 -27 -9 1 -19 -5 -22 -15 -6 -21 7 -278 14 -278 1 0 3
-13 5 -30 2 -16 7 -41 11 -55 4 -14 8 -79 9 -146 2 -127 6 -147 30 -137 14 5
19 -6 16 -34 -2 -13 11 -17 36 -14 11 2 33 -31 59 -89 l11 -25 -1020 0 c-774
0 -1021 -3 -1024 -12 -6 -16 -9 -433 -3 -434 3 -1 135 -2 295 -3 187 -1 289
-5 287 -11 -1 -6 -50 -10 -120 -10 l-117 1 -32 -41 c-18 -22 -33 -44 -33 -50
0 -5 15 -25 32 -44 29 -32 34 -34 99 -35 39 -1 69 -5 69 -11 0 -5 -9 -21 -20
-35 -11 -14 -20 -31 -20 -37 0 -7 -5 -13 -11 -13 -14 0 -6 -57 13 -101 12 -28
16 -29 53 -24 66 10 69 13 103 76 l34 61 19 -31 c10 -17 19 -36 19 -41 0 -6 4
-10 10 -10 5 0 9 -5 7 -12 -3 -16 43 -37 88 -40 37 -3 39 -1 58 44 l19 48 -57
97 c-32 54 -57 106 -57 116 0 9 10 30 21 46 12 16 21 34 21 40 0 13 -3 13 93
15 l79 2 28 -41 c16 -23 30 -48 31 -55 2 -8 -22 -60 -54 -115 -50 -89 -56
-105 -48 -132 18 -63 29 -74 69 -69 20 3 42 5 48 5 7 1 29 30 50 65 l39 64 22
-34 c13 -18 23 -37 23 -41 1 -17 29 -44 51 -49 90 -18 86 -20 104 37 19 57 21
48 -36 145 l-18 30 70 -1 c70 -1 71 0 105 39 19 21 34 42 34 46 0 4 -15 25
-34 46 l-34 39 -118 0 c-69 0 -119 4 -121 10 -2 7 212 10 630 10 l633 0 41
-30 c42 -30 47 -34 117 -80 93 -63 268 -140 390 -175 163 -45 224 -53 426 -54
217 -1 251 4 485 68 52 15 244 99 290 128 78 50 171 113 175 118 17 24 88 26
720 24 371 -1 677 -2 680 -3 3 -1 0 -5 -7 -9 -7 -4 -63 -7 -125 -7 l-113 1
-32 -41 c-18 -22 -33 -44 -33 -50 0 -5 15 -26 34 -46 33 -35 36 -36 100 -33
36 1 66 0 66 -2 0 -2 -13 -30 -30 -62 -31 -61 -36 -83 -22 -96 4 -4 8 -11 8
-14 10 -49 16 -53 60 -47 64 8 66 10 103 77 29 53 35 59 43 42 6 -10 18 -30
26 -44 9 -14 17 -29 17 -35 0 -15 48 -35 90 -37 37 -3 39 -1 58 44 l19 48 -61
105 -62 106 18 32 c10 18 21 34 26 35 4 2 7 10 7 18 0 17 -6 16 98 18 l82 2
30 -57 c28 -54 28 -57 12 -80 -19 -28 -53 -86 -83 -144 l-20 -40 20 -49 c21
-48 22 -48 59 -42 60 11 68 15 80 39 7 12 18 31 24 42 7 11 18 28 24 38 10 16
15 11 44 -40 39 -70 33 -63 61 -68 87 -18 89 -17 109 50 11 38 10 44 -19 93
-17 29 -31 56 -31 61 0 4 30 7 66 6 l66 -1 34 41 c19 23 34 45 34 49 0 4 -16
24 -35 44 l-34 37 -117 0 c-70 0 -119 4 -121 10 -2 7 90 10 269 9 150 0 278 1
284 4 9 2 11 67 10 225 l-1 222 -1057 0 c-582 0 -1058 4 -1058 8 0 21 73 157
81 151 5 -3 7 -9 5 -13 -3 -4 -1 -13 4 -21 10 -17 170 -22 171 -5 0 5 1 298 2
650 1 589 2 636 16 595 13 -38 15 -130 16 -622 0 -604 -1 -585 38 -579 4 0 8
-3 8 -9 1 -5 3 -14 4 -20 1 -5 3 -14 4 -18 0 -4 46 -8 100 -8 l99 0 0 240 c0
133 1 252 1 264 1 25 10 26 101 7 l25 -4 -1 107 c-2 139 -1 132 -23 132 -12 0
-20 9 -23 24 -4 20 -1 23 26 22 l31 -1 1 -255 c2 -268 8 -319 48 -398 32 -64
124 -149 167 -156 19 -3 46 -8 60 -10 38 -6 125 27 161 60 17 16 40 49 52 74
20 43 21 62 23 367 2 269 0 330 -13 375 -20 65 -45 114 -78 152 -15 16 -31 48
-36 70 -16 62 -59 161 -88 203 -90 127 -254 245 -417 300 -177 60 -363 66
-380 12 -3 -10 6 -50 20 -90 14 -40 23 -75 20 -78 -3 -3 -8 4 -11 14 -3 14
-34 33 -92 58 -83 36 -88 41 -112 89 -29 60 -117 194 -168 258 -62 77 -194
203 -280 268 -45 34 -84 62 -86 62 -2 0 -33 17 -67 38 -146 88 -345 162 -499
186 -19 3 -46 8 -60 12 -28 6 -355 16 -361 10z m2464 -1902 c-1 -152 -5 -280
-9 -284 -5 -5 -8 115 -8 273 2 311 1 303 11 294 3 -4 6 -131 6 -283z m-2459
265 c2 -2 6 -15 8 -29 l3 -25 -147 -3 c-95 -1 -148 1 -149 8 -5 37 -2 45 19
50 25 6 261 5 266 -1z m284 -30 c-1 -16 -7 -28 -13 -26 -13 4 -19 33 -11 53 9
25 26 5 24 -27z m269 8 c2 -28 -11 -44 -22 -27 -3 5 -15 10 -26 10 -12 0 -19
7 -19 18 0 26 9 33 39 29 20 -3 26 -10 28 -30z m268 5 c-2 -9 -4 -23 -4 -30
-1 -7 -5 -11 -9 -8 -5 3 -8 15 -6 28 1 13 3 27 3 31 1 5 5 6 10 3 5 -4 8 -14
6 -24z m277 3 c3 -14 -1 -30 -8 -35 -15 -13 -22 -3 -22 33 1 34 24 36 30 2z
m-2138 -14 c-1 -14 -2 -28 -3 -31 -1 -3 -13 -5 -28 -4 -16 1 -33 3 -39 3 -9 1
-10 14 -5 52 1 3 18 6 39 6 36 0 39 -2 36 -26z m504 -1 c-2 -21 -7 -30 -20
-30 -13 0 -18 8 -18 30 0 23 4 30 20 30 16 0 20 -6 18 -30z m-1697 13 c5 -75
2 -593 -3 -593 -5 0 -9 14 -9 30 -1 17 -2 33 -3 38 -1 4 -6 43 -11 87 -4 44
-9 87 -10 95 -2 8 -5 42 -9 75 -3 33 -8 70 -10 82 -3 12 -7 46 -11 75 -3 29
-7 68 -10 86 -4 31 -3 32 35 32 22 0 40 -3 41 -7z m268 -5 c0 -7 -4 -22 -9
-33 -7 -16 -9 -14 -7 13 1 17 5 32 9 32 4 0 8 -6 7 -12z m1166 2 c3 -5 1 -10
-4 -10 -6 0 -11 5 -11 10 0 6 2 10 4 10 3 0 8 -4 11 -10z m0 -30 c3 -5 1 -10
-4 -10 -6 0 -11 5 -11 10 0 6 2 10 4 10 3 0 8 -4 11 -10z m-1691 -349 c-2 -1
-7 -1 -12 3 -5 3 -6 20 -3 38 l5 33 6 -35 c3 -19 5 -37 4 -39z"/>
<path d="M6022 3408 c3 -475 3 -483 23 -483 11 0 20 -7 20 -15 0 -8 3 -19 7
-25 5 -8 129 -12 186 -6 9 1 12 48 12 202 0 110 4 198 8 195 4 -2 7 -81 7
-175 0 -110 3 -171 10 -172 5 -1 16 -1 23 0 7 1 12 -10 12 -27 l0 -28 96 0 95
-1 -2 171 c-1 94 -5 180 -9 192 -5 11 -22 35 -39 52 l-32 31 30 16 c19 10 34
27 40 48 14 49 7 196 -12 239 -18 43 -99 134 -137 153 -23 12 -324 115 -336
115 -2 0 -3 -217 -2 -482z m262 145 c-3 -77 -5 -85 -13 -43 -7 42 -2 112 9
105 4 -2 6 -30 4 -62z"/>
<path d="M6519 3749 c-3 -14 -4 -146 -1 -156 2 -7 13 -13 23 -13 10 0 20 -4
20 -10 1 -5 2 -16 3 -22 0 -7 17 -15 36 -18 l35 -5 2 -295 c0 -162 2 -298 2
-302 1 -4 10 -5 21 -3 12 2 20 -2 21 -11 1 -8 2 -20 3 -26 1 -10 28 -13 101
-13 l100 0 0 307 c1 169 4 310 7 313 6 6 26 7 63 4 52 -5 53 -3 52 76 0 67 -2
74 -21 77 -13 2 -22 12 -24 26 -2 12 -9 22 -15 23 -7 0 -21 2 -32 4 -11 2 -58
6 -105 9 -47 3 -95 8 -107 10 -12 3 -48 7 -80 11 -32 3 -68 9 -80 12 -13 3
-23 4 -24 2z"/>
<path d="M4736 2219 c-53 -26 -63 -35 -71 -72 -4 -17 -9 -39 -12 -47 -2 -8 -5
-21 -5 -27 -2 -21 -11 -15 -58 32 -43 44 -47 46 -97 43 -29 -2 -55 -7 -59 -10
-3 -4 -8 -29 -10 -55 l-3 -48 84 -85 84 -85 -20 -80 c-12 -44 -22 -87 -24 -95
-2 -8 -10 -34 -17 -58 l-13 -42 -87 87 c-48 49 -93 95 -101 103 -12 13 -11 27
9 95 40 136 40 154 2 198 l-33 39 -47 -22 c-44 -22 -47 -26 -64 -92 l-19 -69
-50 50 c-49 50 -51 50 -100 45 -27 -4 -53 -9 -57 -13 -5 -4 -10 -28 -11 -53
-4 -43 -1 -48 44 -94 27 -27 48 -52 49 -55 0 -4 -28 -12 -61 -19 -54 -12 -64
-18 -83 -49 -11 -20 -20 -38 -19 -41 1 -3 -3 -10 -8 -17 -7 -8 3 -21 35 -42
50 -35 36 -35 200 8 l80 21 96 -92 c54 -51 96 -97 95 -103 -2 -10 -23 -17
-177 -59 l-88 -24 -84 85 -85 85 -51 -5 c-28 -3 -54 -8 -58 -11 -3 -4 -8 -27
-9 -53 -4 -44 -2 -49 49 -100 46 -46 51 -57 28 -55 -3 0 -30 -7 -60 -17 -40
-13 -59 -26 -70 -47 -34 -60 -32 -71 15 -103 l44 -30 63 20 c35 10 64 19 65
19 6 0 -10 -76 -18 -92 -15 -28 -10 -48 22 -93 l31 -43 48 22 48 21 26 92 c14
51 26 98 26 105 0 7 4 19 8 26 9 14 259 85 271 77 8 -5 -55 -255 -67 -266 -6
-6 -65 -23 -181 -52 -39 -10 -46 -16 -67 -61 -21 -47 -22 -52 -7 -68 9 -10 21
-18 26 -18 6 0 18 -7 27 -15 14 -13 24 -13 84 4 l68 19 -5 -27 c-3 -14 -10
-46 -15 -71 -9 -41 -8 -47 20 -86 l30 -43 51 23 c27 12 52 29 54 39 5 28 11
52 13 52 1 0 3 8 5 18 10 52 14 52 68 0 35 -34 59 -50 72 -47 11 2 35 4 53 6
24 2 32 7 33 23 1 11 3 35 5 54 4 31 -3 41 -81 118 l-84 84 19 77 c10 42 27
106 36 140 l17 64 101 -101 102 -102 -30 -118 -30 -119 34 -44 34 -45 48 25
c26 13 49 32 52 41 6 20 20 84 20 93 2 24 23 16 65 -26 l48 -48 57 7 c53 7 56
9 57 36 1 16 1 40 2 54 1 17 -14 39 -46 71 -26 26 -46 49 -44 51 3 2 33 12 67
21 61 17 63 18 85 69 l23 52 -45 29 -46 30 -109 -30 c-61 -16 -114 -28 -119
-26 -21 7 -199 192 -192 199 5 4 22 10 38 13 17 3 68 17 115 31 47 13 92 25
100 25 8 0 52 -37 97 -82 82 -82 83 -82 130 -79 27 1 53 7 58 11 6 5 11 31 12
58 3 48 1 51 -47 96 -48 45 -48 46 -27 58 12 6 23 11 25 10 1 -1 4 -1 7 -1 8
2 17 5 51 13 26 6 36 16 53 59 21 48 21 53 5 62 -9 6 -29 20 -44 32 -15 12
-30 20 -32 17 -3 -3 -16 -7 -29 -9 -47 -9 -64 -13 -81 -20 -22 -9 -22 -7 -2
72 l16 63 -32 40 c-17 22 -36 40 -41 40 -18 0 -90 -41 -94 -53 -3 -7 -6 -23
-9 -37 -2 -14 -11 -47 -20 -75 -9 -27 -18 -61 -19 -74 -2 -14 -10 -28 -18 -33
-14 -7 -180 -54 -228 -64 -14 -3 -29 -8 -34 -11 -5 -3 -7 3 -4 13 3 11 20 74
38 141 l31 122 52 15 c28 8 71 20 96 26 68 17 100 31 100 45 0 6 7 27 16 45
16 31 16 34 -2 46 -10 7 -25 18 -31 24 -28 24 -56 26 -111 8 -30 -10 -57 -18
-60 -18 -4 0 1 33 14 83 13 54 12 61 -19 102 l-33 43 -38 -19z"/>
<path d="M2026 2190 c-16 -25 -25 -48 -21 -60 3 -10 8 -27 10 -37 15 -71 17
-83 14 -83 -2 0 -34 8 -70 19 l-65 18 -27 -23 c-15 -13 -34 -27 -44 -32 -15
-9 -15 -12 2 -48 10 -22 17 -41 16 -43 -4 -6 29 -23 63 -32 17 -4 58 -15 91
-24 33 -9 66 -18 74 -19 10 -2 28 -50 53 -137 20 -74 38 -136 38 -138 0 -8
-259 56 -273 68 -4 4 -14 34 -23 67 -42 164 -42 164 -91 185 -24 10 -48 19
-51 19 -4 0 -19 -18 -35 -40 -28 -40 -30 -65 -7 -125 15 -39 12 -54 -7 -50
-10 3 -39 10 -64 16 -48 12 -53 11 -133 -43 -6 -4 -2 -25 13 -56 21 -45 29
-52 70 -63 53 -16 55 -16 78 -18 13 -1 3 -15 -34 -53 -49 -50 -51 -55 -49
-101 2 -26 7 -52 12 -56 5 -5 29 -11 54 -14 45 -5 45 -5 131 79 98 96 77 92
246 47 56 -16 102 -32 103 -37 2 -4 -41 -52 -93 -106 -68 -68 -100 -94 -110
-89 -7 5 -27 11 -43 14 -16 3 -61 14 -101 24 -78 20 -83 19 -140 -31 l-21 -20
24 -49 c14 -27 32 -49 40 -49 8 0 38 -7 65 -16 l50 -17 -33 -36 c-18 -19 -40
-41 -50 -48 -16 -12 -16 -22 -4 -93 3 -14 5 -28 5 -31 1 -3 25 -6 54 -7 50 -1
54 1 102 48 l51 50 17 -69 c18 -68 19 -69 67 -90 27 -12 51 -21 54 -21 3 0 17
18 31 41 29 45 29 47 -8 185 l-24 92 98 98 c54 54 101 96 104 93 3 -3 21 -63
40 -134 41 -147 48 -121 -68 -235 l-68 -66 7 -57 c5 -43 11 -57 23 -58 9 0 33
-2 53 -4 33 -4 41 1 85 46 50 51 59 57 60 37 0 -7 8 -38 17 -68 15 -51 20 -56
67 -77 l50 -22 29 46 c29 46 32 80 9 125 -5 9 -9 25 -9 36 0 18 2 18 68 1 l67
-17 43 31 c23 17 42 32 42 35 0 2 -10 26 -22 52 -21 45 -24 48 -77 59 -31 7
-65 16 -76 20 -11 5 -38 13 -60 17 l-39 9 -28 95 c-15 52 -29 107 -32 122 -2
15 -7 32 -11 37 -11 19 20 22 66 8 38 -13 81 -25 114 -32 78 -18 95 -27 101
-53 3 -15 10 -41 15 -58 9 -30 14 -50 25 -103 7 -36 11 -39 65 -66 l49 -23 31
45 31 45 -17 64 c-18 66 -16 82 7 68 7 -4 19 -9 28 -10 8 -1 30 -7 48 -12 30
-10 38 -8 77 20 25 18 45 35 45 38 0 3 -9 25 -20 49 -19 39 -43 56 -90 66 -8
2 -28 6 -43 10 l-29 8 52 52 52 53 -7 51 c-7 54 -13 59 -77 63 -34 2 -43 -5
-123 -84 l-86 -86 -52 15 c-29 8 -89 24 -134 36 -46 11 -83 24 -83 27 0 3 44
50 98 103 l99 99 116 -32 116 -32 40 28 c46 33 48 41 24 92 -20 44 -26 48 -71
57 -19 3 -46 11 -60 16 l-25 10 48 49 c40 41 48 54 46 82 -1 18 -3 43 -4 56
-1 15 -8 22 -21 23 -12 1 -36 3 -55 5 -29 3 -40 -3 -85 -46 l-51 -49 -8 27
c-10 36 -24 90 -26 102 -1 3 -16 11 -33 18 -18 7 -42 18 -53 24 -15 9 -21 7
-30 -6 -5 -10 -18 -27 -27 -38 -22 -25 -22 -37 -3 -108 8 -30 17 -67 20 -82 3
-15 9 -38 14 -51 9 -22 0 -34 -87 -121 -53 -52 -100 -98 -103 -101 -3 -3 -14
25 -23 62 -10 38 -20 75 -23 83 -4 8 -8 26 -10 39 -2 14 -8 32 -12 40 -15 32
-4 51 77 134 l82 85 -5 48 c-4 26 -8 51 -11 56 -3 4 -28 8 -57 8 -48 0 -55 -3
-99 -47 -26 -26 -49 -45 -51 -42 -2 2 -10 31 -18 64 -15 62 -38 85 -100 100
-22 5 -29 0 -53 -35z"/>
</g>
</svg>
